User Type,Username,Date,Text
,codegurru,2011-12-27T12:10Z,"General
Complete name                            : The.Universe.S06E06.UFO.The.Real.Deal.REAL.HDTV.XviD-DiVERGE.avi
Format                                   : AVI
Format/Info                              : Audio Video Interleave
File size                                : 350 MiB
Duration                                 : 43mn 59s
Overall bit rate mode                    : Variable
Overall bit rate                         : 1 111 Kbps
Writing application                      : transcode-1.1.5

Video
ID                                       : 0
Format                                   : MPEG-4 Visual
Format profile                           : Advanced Simple@L5
Format settings, BVOP                    : 2
Format settings, QPel                    : No
Format settings, GMC                     : No warppoints
Format settings, Matrix                  : Default (H.263)
Codec ID                                 : XVID
Codec ID/Hint                            : XviD
Duration                                 : 43mn 59s
Bit rate                                 : 958 Kbps
Width                                    : 624 pixels
Height                                   : 352 pixels
Display aspect ratio                     : 16:9
Frame rate                               : 23.976 fps
Color space                              : YUV
Chroma subsampling                       : 4:2:0
Bit depth                                : 8 bits
Scan type                                : Progressive
Compression mode                         : Lossy
Bits/(Pixel*Frame)                       : 0.182
Stream size                              : 301 MiB (86%)
Writing library                          : XviD 64

Audio
ID                                       : 1
Format                                   : MPEG Audio
Format version                           : Version 1
Format profile                           : Layer 3
Mode                                     : Joint stereo
Mode extension                           : MS Stereo
Codec ID                                 : 55
Codec ID/Hint                            : MP3
Duration                                 : 43mn 57s
Bit rate mode                            : Variable
Bit rate                                 : 144 Kbps
Channel(s)                               : 2 channels
Sampling rate                            : 48.0 KHz
Compression mode                         : Lossy
Stream size                              : 44.2 MiB (13%)
Alignment                                : Aligned on interleaves
Interleave, duration                     : 24 ms (0.58 video frame)
Writing library                          : LAME3.98r
Encoding settings                        : -m j -V 4 -q 2 -lowpass 17.5 --abr 144
"
